<?xml version="1.0" encoding="UTF-8" standalone="no"?>
<svg
   xmlns:dc="http://purl.org/dc/elements/1.1/"
   xmlns:cc="http://creativecommons.org/ns#"
   xmlns:rdf="http://www.w3.org/1999/02/22-rdf-syntax-ns#"
   xmlns:svg="http://www.w3.org/2000/svg"
   xmlns="http://www.w3.org/2000/svg"
   xmlns:sodipodi="http://sodipodi.sourceforge.net/DTD/sodipodi-0.dtd"
   xmlns:inkscape="http://www.inkscape.org/namespaces/inkscape"
   width="48"
   height="48"
   viewBox="0 0 48 48"
   id="svg2"
   version="1.1"
   inkscape:version="0.91 r13725"
   sodipodi:docname="circle-two-lime.svg">
  <metadata
     id="metadata10">
    <rdf:RDF>
      <cc:Work
         rdf:about="">
        <dc:format>image/svg+xml</dc:format>
        <dc:type
           rdf:resource="http://purl.org/dc/dcmitype/StillImage" />
        <dc:title></dc:title>
      </cc:Work>
    </rdf:RDF>
  </metadata>
  <defs
     id="defs8" />
  <sodipodi:namedview
     pagecolor="#ffffff"
     bordercolor="#666666"
     borderopacity="1"
     objecttolerance="10"
     gridtolerance="10"
     guidetolerance="10"
     inkscape:pageopacity="0"
     inkscape:pageshadow="2"
     inkscape:window-width="1313"
     inkscape:window-height="744"
     id="namedview6"
     showgrid="false"
     inkscape:zoom="4.9166667"
     inkscape:cx="-34.372882"
     inkscape:cy="13.230601"
     inkscape:window-x="53"
     inkscape:window-y="24"
     inkscape:window-maximized="1"
     inkscape:current-layer="svg2" />
  <path
     d="M 24 4 C 12.95 4 4 12.95 4 24 C 4 35.05 12.95 44 24 44 C 35.05 44 44 35.05 44 24 C 44 12.95 35.05 4 24 4 z M 24.189453 8.4707031 C 26.936849 8.4707031 29.111328 9.2324219 30.712891 10.755859 C 32.314453 12.279297 33.115234 14.167318 33.115234 16.419922 C 33.115234 17.565755 32.880859 18.692057 32.412109 19.798828 C 31.943359 20.905599 31.162109 22.070964 30.068359 23.294922 C 28.98763 24.51888 27.184245 26.198568 24.658203 28.333984 C 22.548828 30.104818 21.194661 31.309245 20.595703 31.947266 C 19.996745 32.572266 19.501953 33.203776 19.111328 33.841797 L 33.154297 33.841797 L 33.154297 37.220703 L 14.228516 37.220703 C 14.202474 36.374349 14.339193 35.560547 14.638672 34.779297 C 15.120443 33.490234 15.888672 32.220703 16.943359 30.970703 C 18.011068 29.720703 19.547526 28.275391 21.552734 26.634766 C 24.664714 24.082682 26.767578 22.064453 27.861328 20.580078 C 28.955078 19.082682 29.501953 17.669922 29.501953 16.341797 C 29.501953 14.948568 29.000651 13.776693 27.998047 12.826172 C 27.008464 11.86263 25.712891 11.380859 24.111328 11.380859 C 22.41862 11.380859 21.064453 11.888672 20.048828 12.904297 C 19.033203 13.919922 18.51888 15.326172 18.505859 17.123047 L 14.892578 16.751953 C 15.139974 14.056641 16.070964 12.005859 17.685547 10.599609 C 19.30013 9.1803385 21.468099 8.4707031 24.189453 8.4707031 z "
     id="path4"
     style="fill:#4caf50;fill-opacity:1" />
</svg>
