<?xml version="1.0" encoding="UTF-8" standalone="no"?>
<svg
   xmlns:dc="http://purl.org/dc/elements/1.1/"
   xmlns:cc="http://creativecommons.org/ns#"
   xmlns:rdf="http://www.w3.org/1999/02/22-rdf-syntax-ns#"
   xmlns:svg="http://www.w3.org/2000/svg"
   xmlns="http://www.w3.org/2000/svg"
   version="1.1"
   id="svg2"
   viewBox="0 0 48 48"
   height="48"
   width="48">
  <metadata
     id="metadata10">
    <rdf:RDF>
      <cc:Work
         rdf:about="">
        <dc:format>image/svg+xml</dc:format>
        <dc:type
           rdf:resource="http://purl.org/dc/dcmitype/StillImage" />
        <dc:title></dc:title>
      </cc:Work>
    </rdf:RDF>
  </metadata>
  <defs
     id="defs8" />
  <path
     style="fill:#4caf50;fill-opacity:1"
     id="path4"
     d="M 24 4 C 12.95 4 4 12.95 4 24 C 4 35.05 12.95 44 24 44 C 35.05 44 44 35.05 44 24 C 44 12.95 35.05 4 24 4 z M 23.050781 8.4707031 C 24.613281 8.4707031 26.052083 8.8092448 27.367188 9.4863281 C 28.682292 10.150391 29.684896 11.061849 30.375 12.220703 C 31.078125 13.379557 31.429688 14.610026 31.429688 15.912109 C 31.429688 17.149089 31.097656 18.275391 30.433594 19.291016 C 29.769531 20.306641 28.786458 21.113932 27.484375 21.712891 C 29.177083 22.103516 30.492188 22.917318 31.429688 24.154297 C 32.367188 25.378255 32.835938 26.914714 32.835938 28.763672 C 32.835938 31.263672 31.924479 33.386068 30.101562 35.130859 C 28.278646 36.86263 25.973958 37.728516 23.1875 37.728516 C 20.674479 37.728516 18.584635 36.979818 16.917969 35.482422 C 15.264323 33.985026 14.320313 32.044922 14.085938 29.662109 L 17.601562 29.193359 C 18.005208 31.185547 18.688802 32.624349 19.652344 33.509766 C 20.628906 34.382161 21.813802 34.818359 23.207031 34.818359 C 24.860677 34.818359 26.253906 34.245443 27.386719 33.099609 C 28.532552 31.953776 29.105469 30.534505 29.105469 28.841797 C 29.105469 27.227214 28.578125 25.899089 27.523438 24.857422 C 26.46875 23.802734 25.127604 23.275391 23.5 23.275391 C 22.835938 23.275391 22.009115 23.405599 21.019531 23.666016 L 21.410156 20.580078 C 21.644531 20.60612 21.833333 20.619141 21.976562 20.619141 C 23.473958 20.619141 24.821615 20.228516 26.019531 19.447266 C 27.217448 18.666016 27.816406 17.461589 27.816406 15.833984 C 27.816406 14.544922 27.380208 13.477214 26.507812 12.630859 C 25.635417 11.784505 24.509115 11.361328 23.128906 11.361328 C 21.761719 11.361328 20.622396 11.791016 19.710938 12.650391 C 18.799479 13.509766 18.213542 14.798828 17.953125 16.517578 L 14.4375 15.892578 C 14.867188 13.535807 15.84375 11.712891 17.367188 10.423828 C 18.890625 9.1217448 20.785156 8.4707031 23.050781 8.4707031 z " />
</svg>
