<?xml version="1.0" encoding="UTF-8" standalone="no"?>
<svg
   xmlns:dc="http://purl.org/dc/elements/1.1/"
   xmlns:cc="http://creativecommons.org/ns#"
   xmlns:rdf="http://www.w3.org/1999/02/22-rdf-syntax-ns#"
   xmlns:svg="http://www.w3.org/2000/svg"
   xmlns="http://www.w3.org/2000/svg"
   xmlns:sodipodi="http://sodipodi.sourceforge.net/DTD/sodipodi-0.dtd"
   xmlns:inkscape="http://www.inkscape.org/namespaces/inkscape"
   width="48"
   height="48"
   viewBox="0 0 48 48"
   id="svg2"
   version="1.1"
   inkscape:version="0.91 r13725"
   sodipodi:docname="circle-one-lime.svg">
  <metadata
     id="metadata10">
    <rdf:RDF>
      <cc:Work
         rdf:about="">
        <dc:format>image/svg+xml</dc:format>
        <dc:type
           rdf:resource="http://purl.org/dc/dcmitype/StillImage" />
        <dc:title></dc:title>
      </cc:Work>
    </rdf:RDF>
  </metadata>
  <defs
     id="defs8" />
  <sodipodi:namedview
     pagecolor="#ffffff"
     bordercolor="#666666"
     borderopacity="1"
     objecttolerance="10"
     gridtolerance="10"
     guidetolerance="10"
     inkscape:pageopacity="0"
     inkscape:pageshadow="2"
     inkscape:window-width="1313"
     inkscape:window-height="744"
     id="namedview6"
     showgrid="false"
     inkscape:zoom="4.9166667"
     inkscape:cx="-3.0508477"
     inkscape:cy="13.230601"
     inkscape:window-x="53"
     inkscape:window-y="24"
     inkscape:window-maximized="1"
     inkscape:current-layer="svg2" />
  <path
     d="M 24 4 C 12.95 4 4 12.95 4 24 C 4 35.05 12.95 44 24 44 C 35.05 44 44 35.05 44 24 C 44 12.95 35.05 4 24 4 z M 24.230469 9.0800781 L 26.496094 9.0800781 L 26.496094 37.830078 L 22.980469 37.830078 L 22.980469 15.427734 C 22.134115 16.235026 21.020833 17.042318 19.640625 17.849609 C 18.273438 18.656901 17.042969 19.26237 15.949219 19.666016 L 15.949219 16.267578 C 17.915365 15.343099 19.634115 14.223307 21.105469 12.908203 C 22.576823 11.593099 23.61849 10.317057 24.230469 9.0800781 z "
     id="path4"
     style="fill:#4caf50;fill-opacity:1" />
</svg>
